<svg version="1.1" id="Layer_1" xmlns="http://www.w3.org/2000/svg" xmlns:xlink="http://www.w3.org/1999/xlink" x="0px" y="0px"
	 width="100%" viewBox="0 0 512 512" enable-background="new 0 0 512 512" xml:space="preserve">
<path fill="#000000" opacity="1.000000" stroke="none" 
	d="
M513.000000,235.000000 
	C513.000000,249.354233 513.000000,263.708466 512.596558,278.691162 
	C510.231140,291.979431 508.867523,304.768066 506.175018,317.270508 
	C501.455170,339.186859 492.960938,359.719818 482.298492,379.486603 
	C472.542267,397.573456 460.824951,414.210541 446.991791,429.233978 
	C438.182678,438.801056 428.268341,447.403473 418.435852,455.963226 
	C402.272766,470.034180 383.989716,480.876221 364.575134,489.851227 
	C341.038910,500.731598 316.540009,508.230621 290.680878,511.036407 
	C286.762360,511.461578 282.892426,512.334290 279.000000,513.000000 
	C264.645782,513.000000 250.291550,513.000000 235.308868,512.596558 
	C225.456604,511.120270 216.100479,510.695648 207.035263,508.845673 
	C185.137253,504.376801 164.016373,497.296478 143.941513,487.408783 
	C122.532051,476.863800 102.806465,463.639801 85.212273,447.547821 
	C70.307114,433.915314 56.857033,418.892700 45.470314,402.065948 
	C34.175903,385.375671 24.681969,367.794403 17.485603,348.980713 
	C11.852645,334.254272 7.319791,319.230438 4.932540,303.583160 
	C3.979166,297.334229 2.331577,291.191223 1.000001,285.000000 
	C1.000000,266.645782 1.000000,248.291550 1.386770,229.330872 
	C2.856441,221.518265 3.583403,214.236801 5.088576,207.119919 
	C9.715297,185.243515 16.561260,164.036682 26.576378,144.030182 
	C36.581573,124.043503 48.793919,105.502571 63.668461,88.640778 
	C78.292892,72.062508 94.469231,57.355263 112.671654,44.932613 
	C128.475235,34.147099 145.300140,25.229252 163.197678,18.248610 
	C182.493866,10.722448 202.268158,5.406270 222.833649,2.972095 
	C226.909805,2.489636 230.945602,1.666197 235.000000,1.000000 
	C249.354233,1.000000 263.708466,1.000000 278.691132,1.403420 
	C291.979370,3.768808 304.768005,5.132386 317.270447,7.824902 
	C339.186798,12.544786 359.719788,21.039032 379.486572,31.701464 
	C397.573425,41.457718 414.210510,53.174999 429.233948,67.008217 
	C438.801025,75.817345 447.403473,85.731682 455.963257,95.564117 
	C470.034271,111.727203 480.876221,130.010300 489.851257,149.424850 
	C500.731628,172.961090 508.230530,197.460022 511.036316,223.319138 
	C511.461517,227.237640 512.334290,231.107590 513.000000,235.000000 
M286.000000,193.500015 
	C296.038666,183.125061 306.256470,172.915588 316.049133,162.313400 
	C321.971100,155.901871 321.180634,148.168365 317.890869,140.890778 
	C314.678040,133.783432 308.579010,130.564163 300.784698,129.927094 
	C293.176941,129.305252 287.655853,132.872818 282.679138,137.844177 
	C248.721817,171.764786 214.827332,205.748367 180.831879,239.630707 
	C169.352783,251.071625 169.374374,262.937683 180.760971,274.292358 
	C213.095474,306.536194 245.341217,338.869049 277.665924,371.122772 
	C280.922333,374.372040 284.313171,377.531952 287.931000,380.363678 
	C294.342743,385.382080 301.380463,385.143158 308.559479,382.079987 
	C315.701263,379.032684 319.022736,373.301056 320.008728,365.880707 
	C321.055084,358.006134 317.524628,352.025085 312.238495,346.739105 
	C283.602142,318.103485 254.980530,289.453094 226.281174,260.880768 
	C225.031296,259.636414 223.068497,259.108124 221.306702,258.176971 
	C243.788040,235.701309 264.643982,214.850632 286.000000,193.500015 
z"/>
<path fill="#FFFFFF" opacity="1.000000" stroke="none" 
	d="
M513.000000,234.531342 
	C512.334290,231.107590 511.461517,227.237640 511.036316,223.319138 
	C508.230530,197.460022 500.731628,172.961090 489.851257,149.424850 
	C480.876221,130.010300 470.034271,111.727203 455.963257,95.564117 
	C447.403473,85.731682 438.801025,75.817345 429.233948,67.008217 
	C414.210510,53.174999 397.573425,41.457718 379.486572,31.701464 
	C359.719788,21.039032 339.186798,12.544786 317.270447,7.824902 
	C304.768005,5.132386 291.979370,3.768808 279.159790,1.403420 
	C356.927032,1.000000 434.854095,1.000000 513.000000,1.000000 
	C513.000000,78.687424 513.000000,156.375061 513.000000,234.531342 
z"/>
<path fill="#FFFFFF" opacity="1.000000" stroke="none" 
	d="
M279.468658,513.000000 
	C282.892426,512.334290 286.762360,511.461578 290.680878,511.036407 
	C316.540009,508.230621 341.038910,500.731598 364.575134,489.851227 
	C383.989716,480.876221 402.272766,470.034180 418.435852,455.963226 
	C428.268341,447.403473 438.182678,438.801056 446.991791,429.233978 
	C460.824951,414.210541 472.542267,397.573456 482.298492,379.486603 
	C492.960938,359.719818 501.455170,339.186859 506.175018,317.270508 
	C508.867523,304.768066 510.231140,291.979431 512.596558,279.159821 
	C513.000000,356.927032 513.000000,434.854095 513.000000,513.000000 
	C435.312561,513.000000 357.624939,513.000000 279.468658,513.000000 
z"/>
<path fill="#FFFFFF" opacity="1.000000" stroke="none" 
	d="
M234.531342,1.000000 
	C230.945602,1.666197 226.909805,2.489636 222.833649,2.972095 
	C202.268158,5.406270 182.493866,10.722448 163.197678,18.248610 
	C145.300140,25.229252 128.475235,34.147099 112.671654,44.932613 
	C94.469231,57.355263 78.292892,72.062508 63.668461,88.640778 
	C48.793919,105.502571 36.581573,124.043503 26.576378,144.030182 
	C16.561260,164.036682 9.715297,185.243515 5.088576,207.119919 
	C3.583403,214.236801 2.856441,221.518265 1.386770,228.862213 
	C1.000000,153.072006 1.000000,77.144012 1.000000,1.000000 
	C78.687431,1.000000 156.375061,1.000000 234.531342,1.000000 
z"/>
<path fill="#FFFFFF" opacity="1.000000" stroke="none" 
	d="
M1.000001,285.468658 
	C2.331577,291.191223 3.979166,297.334229 4.932540,303.583160 
	C7.319791,319.230438 11.852645,334.254272 17.485603,348.980713 
	C24.681969,367.794403 34.175903,385.375671 45.470314,402.065948 
	C56.857033,418.892700 70.307114,433.915314 85.212273,447.547821 
	C102.806465,463.639801 122.532051,476.863800 143.941513,487.408783 
	C164.016373,497.296478 185.137253,504.376801 207.035263,508.845673 
	C216.100479,510.695648 225.456604,511.120270 234.840210,512.596558 
	C157.073914,513.000000 79.147827,513.000000 1.000000,513.000000 
	C1.000000,437.312592 1.000000,361.624939 1.000001,285.468658 
z"/>
<path fill="#FFFFFF" opacity="1.000000" stroke="none" 
	d="
M285.749969,193.749985 
	C264.643982,214.850632 243.788040,235.701309 221.306702,258.176971 
	C223.068497,259.108124 225.031296,259.636414 226.281174,260.880768 
	C254.980530,289.453094 283.602142,318.103485 312.238495,346.739105 
	C317.524628,352.025085 321.055084,358.006134 320.008728,365.880707 
	C319.022736,373.301056 315.701263,379.032684 308.559479,382.079987 
	C301.380463,385.143158 294.342743,385.382080 287.931000,380.363678 
	C284.313171,377.531952 280.922333,374.372040 277.665924,371.122772 
	C245.341217,338.869049 213.095474,306.536194 180.760971,274.292358 
	C169.374374,262.937683 169.352783,251.071625 180.831879,239.630707 
	C214.827332,205.748367 248.721817,171.764786 282.679138,137.844177 
	C287.655853,132.872818 293.176941,129.305252 300.784698,129.927094 
	C308.579010,130.564163 314.678040,133.783432 317.890869,140.890778 
	C321.180634,148.168365 321.971100,155.901871 316.049133,162.313400 
	C306.256470,172.915588 296.038666,183.125061 285.749969,193.749985 
z"/>
</svg>